# xmcd
#
# Track frame offsets:
#	150
#	14315
#	29385
#	41100
#	53203
#	62770
#	78848
#	91375
#	102823
#	116070
#	126480
#	139593
#	150015
#	160710
#	180645
#	194903
#	204968
#	217800
#	230438
#	243145
#
# Disc length: 3398
#
# Revision: 4
# Processed by: cddbd v1.5.1PL0 Copyright (c) Steve Scherf et al.
# Submitted via: audiograbber 1.81.03
# Normalized: r3:DSETVAR1
#
DISCID=040d4414
DTITLE=Various Artist - Country Complete (Volume 1)
DYEAR=1997
DGENRE=Country
TTITLE0=Glen Campbell - Rhinestone Cowboy
TTITLE1=Juice Newton - Queen Of Hearts
TTITLE2=Johnny Cash - Ring Of Fire
TTITLE3=Donna Fargo - Funny Face
TTITLE4=Bob Luman - Let's Think About Livin'
TTITLE5=Billie Jo Spears - Blanket On The Ground
TTITLE6=Jim Reeves - I Love You Because
TTITLE7=Don Gibson - Oh Lonesome Me
TTITLE8=Grystal Gale - Talking In Your Sleep
TTITLE9=Ferlin Husky - Wings Of A Dove
TTITLE10=Lynn Anserson - Rose Garden
TTITLE11=Bobby Darin - Eighteen Yellow Roses
TTITLE12=The Statler Brothers - Flowers On The Wall
TTITLE13=Marty Robbins - El Paso
TTITLE14=The Bellamy Brothers - If I Said You Had A Beautiful Body
TTITLE15=Billy Crash Craddock - Rub It In
TTITLE16=Mickey Gilley - Room Full Of Roses
TTITLE17=Jean Shepard - Think I'll Go Somewhere And Cry Myself To Sleep
TTITLE18=Claude King - Wolverton Mountain
TTITLE19=Sue Thompson - I Can't Stop Loving You
EXTD=
EXTT0=
EXTT1=
EXTT2=
EXTT3=
EXTT4=
EXTT5=
EXTT6=
EXTT7=
EXTT8=
EXTT9=
EXTT10=
EXTT11=
EXTT12=
EXTT13=
EXTT14=
EXTT15=
EXTT16=
EXTT17=
EXTT18=
EXTT19=
PLAYORDER=
